<svg xmlns="http://www.w3.org/2000/svg" viewBox="0 0 32 32">
  <defs>
    <linearGradient id="bg" x1="0" y1="0" x2="1" y2="1">
      <stop offset="0%" stop-color="#0e9384"/>
      <stop offset="100%" stop-color="#085f56"/>
    </linearGradient>
  </defs>
  <rect width="32" height="32" rx="6" fill="url(#bg)"/>
  <!-- Lucide Ship icon paths, scaled to fit 32x32 with 6px padding -->
  <g transform="translate(6,6) scale(0.833)" stroke="white" stroke-width="2" fill="none" stroke-linecap="round" stroke-linejoin="round">
    <path d="M2 21c.6.5 1.2 1 2.5 1 2.5 0 2.5-2 5-2 1.3 0 1.9.5 2.5 1 .6.5 1.2 1 2.5 1 2.5 0 2.5-2 5-2 1.3 0 1.9.5 2.5 1"/>
    <path d="M19.38 20A11.6 11.6 0 0 0 21 14l-9-4-9 4c0 2.9.94 5.34 2.81 7.76"/>
    <path d="M19 13V7a2 2 0 0 0-2-2H7a2 2 0 0 0-2 2v6"/>
    <line x1="12" y1="1" x2="12" y2="5"/>
  </g>
</svg>
